<svg width="108" height="79" viewBox="0 0 108 79" fill="none" xmlns="http://www.w3.org/2000/svg">
<g clip-path="url(#clip0)">
<path d="M70.9195 77.3389C69.4355 76.9782 67.6294 75.4779 68.0161 73.4157C68.2079 72.393 68.9439 71.7309 69.707 71.3028C70.7626 70.7107 71.9648 70.4876 73.1234 70.4312C74.4597 70.3662 75.7945 70.5301 77.1209 70.7035C78.4302 70.8747 79.7397 71.0279 81.0549 71.1215C83.6464 71.3052 86.2459 71.3087 88.8377 71.1318C91.3791 70.96 93.9081 70.6139 96.4098 70.0954C97.6513 69.8376 98.8854 69.5351 100.112 69.1879C101.266 68.8829 102.402 68.5008 103.513 68.044C104.971 67.4139 107.343 66.1877 107.15 63.9168C107.047 62.7127 106.259 61.751 105.464 61.081C104.503 60.2709 103.391 59.7379 102.302 59.2203C97.2367 56.8127 92.1611 54.4337 87.0904 52.0406C85.907 51.482 84.7157 50.9385 83.5672 50.284C82.4918 49.6712 81.4216 48.9594 80.5562 47.9751C79.8004 47.1155 79.125 45.9614 79.1488 44.6713C79.1686 43.6015 79.7096 42.6936 80.3722 42.0151C82.0126 40.3352 84.333 39.6541 86.4303 39.2973C89.0359 38.854 91.6793 38.8563 94.2866 38.4283C96.3918 38.0827 98.6413 37.4155 100.353 35.8521C101.01 35.2527 101.589 34.4812 101.832 33.5266C102.051 32.5976 101.942 31.6129 101.528 30.7671C101.065 29.7701 100.325 28.9759 99.5468 28.3255C98.6269 27.5731 97.6154 26.9649 96.5414 26.5185C94.2289 25.5268 91.7973 25.0104 89.4286 24.2494C88.2669 23.8762 87.0935 23.4669 86.0149 22.8258C85.101 22.2827 84.1055 21.5506 83.5971 20.4619C82.548 18.2156 85.0506 16.8769 86.4687 16.3698C87.4402 16.0388 88.432 15.7833 89.4366 15.6052C89.6504 15.5638 89.5597 15.1797 89.3468 15.2208C88.2902 15.4056 87.2482 15.6794 86.2302 16.0399C85.3751 16.3596 84.4928 16.7798 83.8211 17.5029C83.257 18.1102 82.9061 18.9731 83.0565 19.8841C83.2344 20.9618 84.0078 21.7923 84.7341 22.3938C85.6946 23.1892 86.7897 23.7087 87.9 24.1322C89.0694 24.5781 90.2637 24.9257 91.4575 25.2666C93.843 25.9478 96.3355 26.5549 98.4889 28.0045C99.9953 29.0186 102.042 30.9199 101.541 33.2766C101.318 34.3228 100.643 35.1407 99.9138 35.7423C99.0329 36.4693 98.0237 36.9659 97.0003 37.3366C92.2283 39.065 86.9763 37.829 82.3272 40.1765C80.7465 40.9746 78.8265 42.4278 78.811 44.7143C78.803 45.9021 79.332 46.9915 79.9861 47.8526C80.7695 48.8839 81.7839 49.6465 82.816 50.2839C83.9131 50.9358 85.0411 51.5236 86.1953 52.0447C87.4671 52.6459 88.7391 53.2462 90.0114 53.8458L97.7323 57.4897L101.569 59.3002C102.739 59.8527 103.94 60.3828 105.005 61.194C105.876 61.8581 106.906 62.9477 106.817 64.3007C106.747 65.3752 105.954 66.1506 105.229 66.669C104.29 67.3403 103.236 67.7745 102.187 68.1353C100.977 68.5514 99.7475 68.8967 98.5153 69.2071C95.9777 69.8443 93.4043 70.2976 90.8119 70.564C88.2111 70.8333 85.5972 70.921 82.9861 70.8265C81.6662 70.7788 80.3484 70.6837 79.0327 70.5415C77.6764 70.3945 76.3259 70.168 74.9662 70.0675C73.7362 69.9766 72.4944 69.9977 71.2832 70.2898C70.2718 70.5337 69.2034 70.9685 68.4357 71.8168C68.1638 72.1148 67.9523 72.4719 67.815 72.865C67.6777 73.2581 67.6177 73.6784 67.6389 74.0984C67.7025 74.9469 68.0321 75.7455 68.5722 76.3593C69.1816 77.0522 69.9686 77.5277 70.8298 77.7233C71.0418 77.7748 71.1325 77.3907 70.9195 77.3389L70.9195 77.3389Z" fill="#E6E6E6"/>
<path d="M108 77.6377H0V77.9354H108V77.6377Z" fill="#3F3D56"/>
<path d="M98.9407 63.4551L104.019 71.6809L99.291 76.8459L98.678 75.5068L99.7288 72.8286C99.7288 72.8286 99.5537 70.3418 98.9407 69.6722C98.3278 69.0027 95.6133 64.9855 95.6133 64.9855L98.9407 63.4551Z" fill="#FFB8B8"/>
<path d="M92.4608 36.8652C92.4608 36.8652 93.4238 38.5302 91.4098 45.7038C91.4098 45.7038 100.804 63.0224 99.3153 64.1702C97.8267 65.318 93.7985 67.8581 92.7477 67.0929C91.6969 66.3277 84.0547 40.4042 84.0547 40.4042L92.4608 36.8652Z" fill="#2F2E41"/>
<path d="M103.099 70.1982L104.631 71.8721C105.419 72.7329 105.945 73.9764 104.456 75.0285C102.968 76.0806 97.8015 80.0022 96.0502 78.7588C94.2989 77.5154 98.1517 76.3676 98.1517 76.3676C98.1517 76.3676 98.7888 73.7873 99.127 74.3601C99.4652 74.9329 99.4652 76.0806 99.4652 76.0806L103.099 70.1982Z" fill="#2F2E41"/>
<path d="M84.5786 67.9507C84.5786 67.9507 81.7766 73.5939 81.7766 74.2635C81.7766 74.933 81.9517 76.846 81.9517 76.846L76.6103 78.2807L74.7715 77.3242L75.3844 75.6026C75.3844 75.6026 78.7118 74.3591 79.4124 71.9679C80.1129 69.5767 80.9009 67.0898 80.9009 67.0898L84.5786 67.9507Z" fill="#FFB8B8"/>
<path d="M87.8183 11.805C89.8494 11.805 91.496 10.0064 91.496 7.78775C91.496 5.56909 89.8494 3.77051 87.8183 3.77051C85.7872 3.77051 84.1406 5.56909 84.1406 7.78775C84.1406 10.0064 85.7872 11.805 87.8183 11.805Z" fill="#FFB8B8"/>
<path d="M86.8555 11.2307L88.6113 16.7415L92.4595 14.8653C92.4595 14.8653 89.8326 10.4655 89.8326 9.8916L86.8555 11.2307Z" fill="#FFB8B8"/>
<path d="M86.3305 30.8389H90.9714C90.9714 30.8389 94.2988 36.3865 92.3724 42.2211C92.0774 43.1146 91.7845 44.3661 91.4922 45.8458C90.82 49.2488 90.1508 53.8584 89.4649 58.0942C88.5015 64.044 87.5054 69.2563 86.4225 69.3509C84.2334 69.5422 79.9766 69.5103 79.9766 68.5538C79.9766 67.5973 82.828 39.9255 82.828 39.9255L83.4409 38.7778L83.5568 33.7782C83.575 32.9892 83.8757 32.2395 84.3943 31.69C84.9129 31.1405 85.608 30.8349 86.3305 30.8389L86.3305 30.8389Z" fill="#2F2E41"/>
<path d="M81.7337 74.2158C81.7337 74.2158 82.7407 76.081 82.478 77.4201C82.2153 78.7592 81.7775 78.5679 79.8511 78.7592C77.9247 78.9504 71.3574 78.9505 71.3574 77.6114C71.3574 76.2723 76.4804 74.5333 76.5021 75.068C76.5237 75.6027 76.6988 76.6549 76.1734 76.8462C75.648 77.0375 76.1296 76.894 76.1296 76.894L81.7337 74.2158Z" fill="#2F2E41"/>
<path d="M84.6543 42.2776C84.6543 42.2776 83.6011 48.9869 81.2763 46.6752C78.9516 44.3635 82.8241 41.1494 82.8241 41.1494L84.6543 42.2776Z" fill="#FFB8B8"/>
<path d="M91.9277 33.829C92.0498 33.8892 92.1846 33.9119 92.3176 33.8947C92.4506 33.8775 92.5768 33.821 92.6827 33.7314C92.8364 33.5996 92.9387 33.4092 92.9692 33.1985C93.3364 30.8854 93.7837 24.4731 94.0412 21.2306C94.3644 17.1619 92.75 14.0106 92.7364 13.9914L91.785 12.5624C91.6862 12.4131 91.544 12.3047 91.3816 12.255C91.2192 12.2052 91.0462 12.2169 90.8907 12.2882C90.8907 12.2882 87.9204 15.6545 87.9095 15.7845C87.8629 16.3426 87.5094 17.5794 85.6668 19.5921C83.6507 21.7943 83.6395 23.7164 83.6841 24.2531C83.687 24.2884 83.6885 24.3236 83.6886 24.3589C83.6848 24.5996 83.7147 24.8396 83.7774 25.0705C84.6219 27.9786 83.9605 31.4602 82.8986 35.0945C82.8583 35.2587 82.8658 35.4325 82.92 35.5919C82.9742 35.7513 83.0724 35.8883 83.201 35.984C83.5112 36.2145 83.1392 35.8725 83.2499 36.0205C83.9818 37.0002 85.035 35.6348 86.2398 34.145C86.6595 33.6261 87.1352 33.0378 87.6958 32.4255C88.4666 31.5834 89.9394 33.5048 90.6242 33.5048C91.0748 33.5108 91.5191 33.6213 91.9277 33.829Z" fill="#FFDA63"/>
<path d="M92.8105 15.7858C92.8105 15.7858 94.5467 17.7752 93.2323 19.9302C91.9178 22.0853 91.894 23.7874 91.894 23.7874C91.894 23.7874 90.0375 39.4468 86.7192 38.2799L84.7101 42.7525L82.0312 41.3207L84.0539 37.4057C84.0539 37.4057 82.7711 37.164 83.2445 36.2477C83.577 35.6042 85.7367 28.4476 86.9929 24.2445C87.5252 22.4634 87.8953 21.2126 87.8953 21.2126C87.8953 21.2126 89.6348 14.9264 92.8105 15.7858Z" fill="#FFDA63"/>
<path opacity="0.2" d="M92.417 23.8085L90.5723 31.3862L91.9753 23.2158L92.417 23.8085Z" fill="black"/>
<path d="M83.8052 6.0075C83.8052 6.0075 83.1869 0.751431 88.2317 2.47502C88.2317 2.47502 91.8348 1.75288 93.0163 6.67585L94.2128 11.8363L93.6297 11.4897L93.3578 12.1387L92.413 12.4001L92.0087 11.5235L91.8131 12.588L84.0742 13.4308C84.0742 13.4308 87.5403 11.1917 87.5952 7.1787L86.935 7.9408L83.8052 6.0075Z" fill="#2F2E41"/>
<path d="M11.5085 0.441406C11.3915 0.441884 11.2795 0.493042 11.197 0.583656C11.1144 0.67427 11.0682 0.796939 11.0684 0.924753V40.0792C11.0682 40.207 11.1144 40.3297 11.1969 40.4203C11.2795 40.5109 11.3915 40.5621 11.5085 40.5626H62.6823C62.7993 40.5621 62.9113 40.5109 62.9939 40.4203C63.0764 40.3297 63.1226 40.207 63.1224 40.0792V0.924753C63.1226 0.796946 63.0764 0.674277 62.9939 0.583662C62.9113 0.493046 62.7993 0.441887 62.6823 0.441406H11.5085Z" fill="#3F3D56"/>
<path d="M11.3243 23.4528C12.8853 23.4479 14.3591 24.0539 15.6444 24.9962C16.9936 25.9853 18.1338 27.2958 19.1355 28.6837C20.2424 30.2173 21.1908 31.8768 22.2089 33.4798C23.1491 34.9602 24.1566 36.3994 25.3684 37.6295C26.5149 38.7932 27.8426 39.7717 29.3401 40.3023C29.5225 40.367 29.707 40.4241 29.893 40.4751C30.1027 40.5326 30.1921 40.1789 29.9823 40.1214C28.4445 39.6998 27.0696 38.7867 25.8876 37.6487C24.6542 36.4612 23.6287 35.0521 22.686 33.5875C21.6596 31.9929 20.7151 30.335 19.6299 28.7859C18.6257 27.3527 17.4965 26.0051 16.1552 24.9401C14.9106 23.9518 13.4688 23.2479 11.9233 23.1106C11.724 23.0928 11.5242 23.0853 11.3243 23.086C11.2808 23.0876 11.2395 23.1077 11.2093 23.1419C11.179 23.1761 11.1621 23.2218 11.1621 23.2694C11.1621 23.3169 11.179 23.3627 11.2093 23.3969C11.2395 23.4311 11.2808 23.4511 11.3243 23.4528L11.3243 23.4528Z" fill="#FFDA63"/>
<path d="M11.4993 40.3876C14.2453 37.3536 17.9992 35.9194 21.7271 34.989C25.626 34.0159 29.6486 33.4936 33.3531 31.7576C35.1221 30.9509 36.7459 29.8076 38.1488 28.3807C39.4588 27.0138 40.5454 25.4127 41.3619 23.6462C43.0282 20.0652 43.5465 15.977 42.8337 12.0362C42.0796 8.02968 40.2099 4.37586 37.4809 1.57521C37.1483 1.23374 36.804 0.906818 36.4479 0.594443C36.2812 0.44772 36.0421 0.705678 36.2105 0.853818C39.1111 3.40863 41.2115 6.88657 42.2201 10.8048C43.2055 14.6699 42.9505 18.7871 41.4974 22.472C40.7923 24.262 39.8166 25.9097 38.611 27.3461C37.332 28.8443 35.811 30.0721 34.1244 30.9678C30.5309 32.9058 26.5088 33.5057 22.629 34.3981C18.9708 35.2395 15.2393 36.4398 12.3063 39.0837C11.9423 39.4124 11.5936 39.761 11.2618 40.1282C11.1097 40.2963 11.347 40.5558 11.4993 40.3876Z" fill="#FFDA63"/>
<path d="M11.293 17.4188C15.5073 16.1737 19.9669 16.3406 24.0934 17.8977C25.2921 18.3468 26.5217 18.8687 27.5246 19.737C28.3873 20.484 29.1449 21.6148 28.9294 22.8844C28.7307 24.0547 27.7452 24.9792 26.6845 25.1483C25.5906 25.3228 24.5938 24.5956 24.092 23.5651C23.8359 23.0541 23.7189 22.4736 23.7548 21.8923C23.7907 21.311 23.9781 20.753 24.2948 20.2842C24.929 19.3512 25.9833 18.8184 27.0195 18.6707C28.2039 18.5018 29.3688 18.8832 30.3932 19.5208C32.7086 20.962 34.1872 23.4745 36.1317 25.3898C37.0636 26.3366 38.1578 27.0727 39.3513 27.5556C40.5057 27.9914 41.7233 28.1926 42.944 28.1491C45.5027 28.078 47.9563 27.0683 50.0467 25.4845C52.1437 23.8957 53.8756 21.8098 55.3921 19.5836C56.2029 18.3932 56.9077 17.1142 57.7562 15.9552C58.5914 14.8144 59.625 13.8003 60.9465 13.4184C61.548 13.2366 62.183 13.2328 62.7863 13.4073C62.8286 13.4183 62.8733 13.411 62.9108 13.3867C62.9483 13.3625 62.9757 13.3234 62.9873 13.2775C62.9988 13.2316 62.9937 13.1826 62.9728 13.1409C62.952 13.0991 62.9171 13.0678 62.8755 13.0536C61.5906 12.6708 60.2399 13.1188 59.1746 13.9357C58.0351 14.8094 57.2186 16.0759 56.4439 17.3162C54.8963 19.7941 53.2297 22.1956 51.1142 24.1341C49.0021 26.0695 46.4603 27.4564 43.6894 27.7343C42.3639 27.8802 41.025 27.7377 39.7502 27.315C38.4177 26.8577 37.2621 26.0318 36.2407 25.0023C34.2338 22.9796 32.6729 20.3246 30.1611 18.9706C29.1024 18.3999 27.9438 18.1261 26.7706 18.3434C25.7375 18.5347 24.7215 19.0912 24.0702 20.0052C23.7403 20.4647 23.5251 21.0098 23.4455 21.5873C23.3659 22.1648 23.4247 22.7549 23.6162 23.3002C23.9872 24.3643 24.8151 25.2834 25.8665 25.4929C26.9277 25.7044 28.0365 25.1699 28.6991 24.26C29.0308 23.8034 29.2323 23.2504 29.2784 22.6697C29.3246 22.089 29.2133 21.5063 28.9585 20.9941C28.4134 19.8432 27.35 19.0474 26.3141 18.4858C25.0128 17.8034 23.6469 17.279 22.2409 16.9221C19.3556 16.1535 16.3585 16.0246 13.4268 16.543C12.6782 16.6764 11.9363 16.8507 11.2037 17.0651C11.1622 17.0794 11.1273 17.1107 11.1064 17.1524C11.0856 17.1942 11.0804 17.2432 11.092 17.2891C11.1036 17.3349 11.131 17.3741 11.1685 17.3983C11.206 17.4225 11.2506 17.4299 11.293 17.4188H11.293Z" fill="#FFDA63"/>
<path d="M46.3274 40.5487C47.5154 38.806 48.7302 36.9574 49.2431 34.8253C49.4984 33.8075 49.5359 32.7393 49.3525 31.7032C49.1752 30.7998 48.8296 29.9459 48.3373 29.1946C47.3275 27.628 45.8388 26.4636 44.2547 25.6776C42.2929 24.7042 40.1773 24.2051 38.1297 23.5032C36.2423 22.8562 34.3072 22.012 32.8973 20.4395C31.5652 18.9538 30.8104 16.7175 31.5534 14.7061C32.2275 12.881 33.8704 11.6707 35.5104 11.0317C37.5212 10.2483 39.6748 10.1073 41.7239 9.48637C43.4369 8.96729 45.19 8.0822 46.2506 6.45707C47.1495 5.07985 47.438 3.0938 46.7195 1.55451C46.5443 1.18136 46.3085 0.846081 46.0236 0.565012C45.8638 0.406812 45.6256 0.665455 45.7861 0.824386C46.9977 2.02379 47.0121 4.07586 46.3295 5.59491C45.528 7.37849 43.7974 8.39449 42.1317 8.97157C40.149 9.65843 38.051 9.80504 36.0588 10.4513C34.356 11.0036 32.6904 11.994 31.6884 13.6491C31.2018 14.4418 30.935 15.371 30.9199 16.3252C30.9252 17.3464 31.1746 18.3483 31.6435 19.2316C32.5907 21.0687 34.2791 22.2571 36.0167 23.0591C39.6698 24.745 44.0036 25.0025 47.0133 28.0936C48.3058 29.4211 49.1835 31.1842 49.1328 33.1591C49.0769 35.3375 48.0108 37.3195 46.902 39.0601C46.6214 39.5005 46.3308 39.9332 46.0374 40.3636C45.9083 40.553 46.1996 40.7361 46.3274 40.5487V40.5487Z" fill="#FFDA63"/>
<path d="M18.9025 0.93126C19.3647 1.29921 19.7387 1.78357 19.9929 2.3432C20.2471 2.90283 20.3738 3.5212 20.3624 4.14579C20.3442 4.77816 20.1831 5.3958 19.8934 5.94368C19.6038 6.49156 19.1945 6.95267 18.7022 7.28592C17.7696 7.88721 16.4589 7.96287 15.7163 6.98031C15.4092 6.58175 15.256 6.06825 15.2894 5.54852C15.3158 5.2977 15.3971 5.05751 15.5265 4.8483C15.6559 4.63908 15.8295 4.46699 16.0327 4.34658C16.9747 3.75946 18.1037 4.10512 18.9743 4.66769C19.5131 5.0159 20.0062 5.43951 20.5214 5.82635C21.0137 6.19911 21.5393 6.51627 22.0902 6.77294C24.2836 7.78496 26.8571 7.797 29.0193 6.67833C29.999 6.16597 30.8763 5.44734 31.6011 4.56367C32.3259 3.68 32.8838 2.64869 33.2427 1.52892C33.3294 1.25207 33.4024 0.970366 33.4614 0.685002C33.5092 0.455156 33.1856 0.357024 33.1376 0.587489C32.6331 3.01283 31.0915 5.11006 29.0717 6.2421C26.87 7.47603 24.1517 7.44151 21.9264 6.2941C21.3559 5.98713 20.8122 5.6242 20.3018 5.2098C19.7768 4.79886 19.2534 4.37451 18.6666 4.07287C17.7442 3.59871 16.5368 3.46526 15.6718 4.16656C15.4689 4.32778 15.2999 4.53446 15.176 4.77279C15.0522 5.01112 14.9763 5.27559 14.9536 5.54852C14.9209 6.10734 15.0735 6.66033 15.3834 7.10636C16.1029 8.16651 17.398 8.31664 18.4604 7.82718C19.5777 7.31238 20.3827 6.14678 20.6216 4.85866C20.7648 4.06336 20.6947 3.23983 20.4198 2.48697C20.1449 1.73411 19.6769 1.08394 19.072 0.61453C18.8963 0.476497 18.7284 0.794531 18.9025 0.93126H18.9025Z" fill="#FFDA63"/>
<path d="M54.5137 40.4778C54.8698 38.7098 55.5803 37.0501 56.594 35.618C57.6035 34.1818 58.8796 32.9948 60.3385 32.1351C61.1579 31.6536 62.0305 31.2893 62.9349 31.051C63.1449 30.9957 63.056 30.6419 62.8456 30.6973C61.1945 31.1425 59.654 31.9811 58.3345 33.153C57.0092 34.3176 55.9247 35.7755 55.1522 37.4307C54.7172 38.3649 54.3938 39.3561 54.1899 40.3802C54.1445 40.6104 54.4682 40.7088 54.5137 40.4778H54.5137Z" fill="#FFDA63"/>
<path d="M52.73 0.619145C52.014 0.627019 51.4102 1.16834 51.117 1.85854C50.7843 2.6418 50.8753 3.50375 51.232 4.2584C52.0641 6.01891 53.881 6.64281 55.1893 7.86004C55.7963 8.42478 56.3253 9.14339 56.4646 10.0227C56.6004 10.8799 56.3201 11.7632 55.861 12.453C55.3597 13.2061 54.6037 13.7239 53.8162 14.0505C53.0062 14.3869 52.1507 14.5742 51.2846 14.6049C50.448 14.6308 49.5634 14.4711 48.8705 13.9259C48.583 13.7013 48.3412 13.414 48.1606 13.0821C47.98 12.7502 47.8644 12.3809 47.8213 11.9977C47.7858 11.6511 47.8396 11.3006 47.9767 10.9857C48.1137 10.6707 48.3285 10.4038 48.5969 10.215C49.1381 9.86543 49.78 9.75163 50.3946 9.89629C51.9258 10.2268 52.719 11.8865 53.0576 13.408C53.4888 15.3453 53.3175 17.405 53.9807 19.2875C54.546 20.8805 55.5753 22.2263 56.9098 23.1174C58.4394 24.1338 60.0863 24.4627 61.822 23.9663C62.264 23.8373 62.6938 23.6626 63.1056 23.4447C63.3004 23.3428 63.1302 23.0264 62.9361 23.1279C61.2106 24.0301 59.4453 24.0589 57.7089 23.1699C56.27 22.4242 55.1168 21.1497 54.4509 19.5693C53.6653 17.7015 53.8215 15.6042 53.4475 13.6313C53.1464 12.0433 52.4152 10.2731 50.9216 9.67604C49.7196 9.19554 48.1086 9.56852 47.6083 10.9824C47.3467 11.7215 47.498 12.5666 47.8573 13.2339C48.2627 13.9648 48.9028 14.5045 49.6529 14.7476C50.4953 15.04 51.4043 15.0155 52.2683 14.8667C53.1379 14.734 53.9787 14.4323 54.7508 13.9758C55.4906 13.5371 56.0922 12.8652 56.4773 12.0476C56.8361 11.2485 56.9516 10.3185 56.6788 9.46687C56.0759 7.58537 54.2527 6.8085 52.8916 5.72059C52.221 5.18458 51.5915 4.48051 51.3416 3.5933C51.2246 3.21329 51.2086 2.8048 51.2956 2.41528C51.3826 2.02575 51.5689 1.67117 51.833 1.39271C52.0746 1.13892 52.3948 0.993711 52.73 0.98595C52.7735 0.984301 52.8147 0.964256 52.845 0.930041C52.8752 0.895826 52.8922 0.850115 52.8922 0.802545C52.8922 0.754975 52.8752 0.709265 52.845 0.675049C52.8147 0.640834 52.7735 0.620789 52.73 0.619141L52.73 0.619145Z" fill="#FFDA63"/>
<path d="M46.0059 34.1257C49.5914 34.1257 52.4981 30.9507 52.4981 27.0341C52.4981 23.1174 49.5914 19.9424 46.0059 19.9424C42.4203 19.9424 39.5137 23.1174 39.5137 27.0341C39.5137 30.9507 42.4203 34.1257 46.0059 34.1257Z" fill="#FFDA63"/>
<path d="M47.6839 11.1381C49.1057 11.1381 50.2584 9.87903 50.2584 8.32589C50.2584 6.77274 49.1057 5.51367 47.6839 5.51367C46.262 5.51367 45.1094 6.77274 45.1094 8.32589C45.1094 9.87903 46.262 11.1381 47.6839 11.1381Z" fill="#FFDA63"/>
<path d="M16.2307 13.2172C17.6526 13.2172 18.8053 11.9581 18.8053 10.405C18.8053 8.85184 17.6526 7.59277 16.2307 7.59277C14.8089 7.59277 13.6562 8.85184 13.6562 10.405C13.6562 11.9581 14.8089 13.2172 16.2307 13.2172Z" fill="#FFDA63"/>
<path opacity="0.2" d="M89.5605 58.3972L91.2862 45.8369L89.8827 59.3963L89.5605 58.3972Z" fill="black"/>
<path d="M92.3815 4.65261C93.4562 4.65261 94.3275 3.70094 94.3275 2.52699C94.3275 1.35304 93.4562 0.401367 92.3815 0.401367C91.3068 0.401367 90.4355 1.35304 90.4355 2.52699C90.4355 3.70094 91.3068 4.65261 92.3815 4.65261Z" fill="#2F2E41"/>
<path d="M90.377 2.00638C90.4089 1.46708 90.6279 0.961376 90.9893 0.592262C91.3506 0.223148 91.8272 0.0183891 92.322 0.0196883C92.2818 0.0141192 92.242 0.00735004 92.201 0.00447248C91.9459 -0.0136337 91.69 0.0233515 91.448 0.113312C91.206 0.203273 90.9825 0.344447 90.7905 0.528767C90.5984 0.713088 90.4415 0.936942 90.3287 1.18754C90.2158 1.43813 90.1493 1.71056 90.1329 1.98924C90.1165 2.26793 90.1505 2.54742 90.2331 2.81173C90.3156 3.07605 90.445 3.32001 90.6138 3.52968C90.7827 3.73934 90.9877 3.91061 91.2172 4.03368C91.4467 4.15676 91.6962 4.22923 91.9513 4.24696C91.9923 4.24984 92.0326 4.24869 92.0731 4.24879C91.5822 4.18088 91.1336 3.91114 90.8185 3.49451C90.5033 3.07789 90.3455 2.54572 90.377 2.00638Z" fill="#2F2E41"/>
<path d="M87.5163 9.03668C87.8522 9.03668 88.1244 8.62032 88.1244 8.10672C88.1244 7.59312 87.8522 7.17676 87.5163 7.17676C87.1805 7.17676 86.9082 7.59312 86.9082 8.10672C86.9082 8.62032 87.1805 9.03668 87.5163 9.03668Z" fill="#FFB8B8"/>
<path opacity="0.2" d="M86.3006 25.5096L83.6035 35.2712L86.9087 24.5283L86.3006 25.5096Z" fill="black"/>
</g>
<defs>
<clipPath id="clip0">
<rect width="108" height="79" fill="white"/>
</clipPath>
</defs>
</svg>
