<svg width="99" height="80" viewBox="0 0 99 80" fill="none" xmlns="http://www.w3.org/2000/svg">
<g clip-path="url(#clip0)">
<path d="M65.1416 44.7903C63.0532 46.0437 59.3323 47.6143 55.5299 46.0002L53.0719 44.9568L57.9975 39.4312C54.067 35.0941 51.8925 29.4469 51.8984 23.5918C51.9044 17.7366 54.0905 12.0939 58.0299 7.76485C61.9693 3.43585 67.3792 0.731326 73.2039 0.179178C79.0285 -0.372969 84.8497 1.26689 89.5312 4.77867C94.2128 8.29044 97.4186 13.4221 98.523 19.172C99.6274 24.9218 98.5512 30.8772 95.5043 35.8757C92.4574 40.8742 87.6586 44.557 82.0445 46.2053C76.4304 47.8536 70.404 47.3491 65.1416 44.7903V44.7903ZM55.7043 23.5786C55.6934 26.2776 56.2408 28.9498 57.3119 31.4269C58.3831 33.904 59.9548 36.1325 61.9283 37.9722L63.2869 39.25L60.1875 42.727C61.8019 42.3992 63.2081 41.5251 63.9211 41.0175L64.8994 40.3208L65.9516 40.8994C68.8601 42.4931 72.1228 43.3282 75.4387 43.3279C86.3202 43.3279 95.1731 34.4684 95.1731 23.5786C95.1731 12.6888 86.3202 3.82921 75.4387 3.82921C64.5571 3.82921 55.7043 12.6888 55.7043 23.5786V23.5786Z" fill="#3F3D56"/>
<path d="M53.791 23.5792C53.791 11.6144 63.483 1.91504 75.4387 1.91504C87.3945 1.91504 97.0865 11.6144 97.0865 23.5792C97.0865 35.5439 87.3944 45.2433 75.4387 45.2433C71.8001 45.2486 68.2193 44.3318 65.0303 42.5783C63.5339 43.6438 59.8834 45.7691 56.2771 44.2382L60.6181 39.3683C58.4602 37.3448 56.7406 34.8992 55.5663 32.1832C54.3919 29.4671 53.7876 26.5386 53.791 23.5792Z" fill="#FFDA63"/>
<path opacity="0.1" d="M93.3985 23.626C93.3985 12.3067 84.7234 3.01658 73.6641 2.0471C74.2946 1.99182 74.9325 1.96191 75.5774 1.96191C87.5331 1.96191 97.2251 11.6613 97.2251 23.626C97.2251 35.5908 87.5331 45.2901 75.5774 45.2901C74.9334 45.2901 74.2967 45.2598 73.6671 45.2047C84.7249 44.2338 93.3985 34.9443 93.3985 23.626Z" fill="black"/>
<path d="M25.5543 74.8866C20.1452 74.8892 14.8996 73.0311 10.6966 69.6237C6.49354 66.2163 3.58852 61.4667 2.46836 56.1708C1.3482 50.875 2.08096 45.3547 4.54384 40.5352C7.00673 35.7157 11.0501 31.8899 15.9962 29.6988C20.9424 27.5077 26.4908 27.0845 31.7116 28.5003C36.9325 29.916 41.5084 33.0845 44.6726 37.4749C47.8368 41.8652 49.397 47.2106 49.0916 52.6151C48.7863 58.0197 46.634 63.155 42.9955 67.1604L47.921 72.6861L45.4631 73.7295C41.6607 75.3435 37.9398 73.773 35.8513 72.5195C32.6416 74.0766 29.1212 74.8859 25.5543 74.8866ZM25.5543 31.5584C14.6727 31.5584 5.81986 40.418 5.81986 51.3078C5.81986 62.1976 14.6727 71.0571 25.5543 71.0571C28.8702 71.0575 32.1328 70.2223 35.0413 68.6286L36.0935 68.05L37.0719 68.7467C37.7849 69.2544 39.191 70.1284 40.8055 70.4562L37.706 66.9792L39.0647 65.7015C41.0382 63.8617 42.6099 61.6332 43.681 59.1561C44.7522 56.679 45.2995 54.0069 45.2887 51.3078C45.2887 40.418 36.4358 31.5584 25.5543 31.5584Z" fill="#3F3D56"/>
<path d="M47.2017 51.3077C47.2017 39.3429 37.5097 29.6436 25.554 29.6436C13.5983 29.6436 3.90625 39.3429 3.90625 51.3077C3.90625 63.2724 13.5983 72.9718 25.554 72.9718C29.1926 72.9771 32.7734 72.0603 35.9624 70.3068C37.4588 71.3723 41.1093 73.4976 44.7156 71.9667L40.3746 67.0968C42.5325 65.0733 44.252 62.6277 45.4264 59.9117C46.6008 57.1956 47.2051 54.2671 47.2017 51.3077Z" fill="#FFDA63"/>
<path opacity="0.1" d="M7.73286 51.1983C7.73286 39.8789 16.408 30.5889 27.4673 29.6194C26.8367 29.5641 26.1988 29.5342 25.5539 29.5342C13.5983 29.5342 3.90625 39.2335 3.90625 51.1983C3.90625 63.163 13.5983 72.8624 25.5539 72.8624C26.1979 72.8624 26.8346 72.8321 27.4642 72.7769C16.4064 71.806 7.73286 62.5166 7.73286 51.1983Z" fill="black"/>
<path d="M80.5212 16.6964C79.1048 14.3013 76.3026 14.1897 76.3026 14.1897C76.3026 14.1897 73.572 13.8403 71.8204 17.4879C70.1877 20.8879 67.9344 24.1706 71.4576 24.9665L72.094 22.9843L72.4881 25.1141C72.9898 25.1502 73.493 25.1588 73.9956 25.1399C77.7687 25.0179 81.3619 25.1755 81.2462 23.8206C81.0924 22.0193 81.884 19.0009 80.5212 16.6964Z" fill="#2F2E41"/>
<path d="M71.2561 37.6705C71.2145 37.9339 71.1541 38.194 71.0754 38.4488C70.9868 38.6982 70.85 38.9289 70.7689 39.1809C70.5106 39.9841 70.8687 40.8797 71.4407 41.4997C71.9366 42.0352 72.5769 42.4156 73.2841 42.5951C73.8048 42.7066 74.3358 42.7625 74.8683 42.7618C76.3407 42.8117 77.851 42.8564 79.2462 42.3829C79.6869 42.2296 80.1127 42.036 80.5181 41.8046C80.646 41.7436 80.7588 41.6548 80.8481 41.5446C80.9416 41.3832 80.9831 41.1969 80.9672 41.0111C80.9641 40.3864 80.8375 39.7649 80.8676 39.141C80.8842 38.7954 80.9488 38.4501 80.917 38.1055C80.873 37.7142 80.7092 37.3461 80.4481 37.0515C80.1869 36.757 79.8412 36.5504 79.4582 36.46C79.0624 36.375 78.6519 36.4213 78.249 36.4601C77.203 36.5607 76.1526 36.6077 75.1019 36.6009C74.0283 36.5941 72.9614 36.4301 71.8931 36.4129C71.5772 36.4079 71.5836 36.5053 71.483 36.8113C71.3904 37.0929 71.3146 37.3798 71.2561 37.6705Z" fill="#2F2E41"/>
<path d="M74.3026 22.2465C74.251 22.5169 74.1952 22.7971 74.0329 23.0193C73.8461 23.2749 73.5416 23.4209 73.3407 23.6655C73.0382 24.0338 73.0209 24.5519 73.0196 25.0285C73.0185 25.4676 73.0274 25.936 73.272 26.3004C73.4462 26.5269 73.6623 26.7175 73.9086 26.8621C74.8262 27.4809 75.8177 28.1109 76.924 28.1313C77.3824 28.1397 77.8739 28.0213 78.1755 27.6757C78.3058 27.5134 78.4082 27.3306 78.4786 27.1347C78.7614 26.4369 78.9329 25.6989 78.9867 24.9477C79.0275 24.5946 78.9945 24.2369 78.89 23.8971C78.7556 23.5221 78.4838 23.2136 78.3042 22.858C78.0919 22.4353 78.0143 21.9575 78.0817 21.4892C78.0907 21.4562 78.0879 21.4211 78.0739 21.39C78.0592 21.3733 78.0407 21.3603 78.0201 21.3519C77.9994 21.3435 77.9771 21.34 77.9549 21.3417L75.7613 21.1837C75.557 21.1735 75.3536 21.1502 75.1522 21.114C75.034 21.0899 74.7216 20.9218 74.6089 20.9665C74.4002 21.0492 74.3454 22.0223 74.3026 22.2465Z" fill="#A0616A"/>
<path opacity="0.1" d="M74.3026 22.3149C74.251 22.5852 74.1952 22.8654 74.0329 23.0876C73.8461 23.3432 73.5416 23.4893 73.3407 23.7339C73.0382 24.1021 73.0209 24.6202 73.0196 25.0969C73.0185 25.536 73.0274 26.0043 73.272 26.3688C73.4462 26.5952 73.6623 26.7859 73.9086 26.9304C74.8262 27.5493 75.8177 28.1792 76.9241 28.1996C77.3824 28.2081 77.8739 28.0896 78.1755 27.7441C78.3058 27.5818 78.4082 27.3989 78.4786 27.2031C78.7614 26.5052 78.9329 25.7672 78.9867 25.0161C79.0275 24.663 78.9945 24.3052 78.89 23.9655C78.7556 23.5905 78.4838 23.2819 78.3042 22.9264C78.0919 22.5036 78.0143 22.0258 78.0817 21.5575C78.0907 21.5246 78.0879 21.4895 78.0739 21.4583C78.0592 21.4416 78.0407 21.4286 78.0201 21.4202C77.9994 21.4119 77.9771 21.4084 77.9549 21.4101L75.7613 21.252C75.557 21.2419 75.3536 21.2186 75.1522 21.1823C75.034 21.1582 74.7216 20.9902 74.6089 21.0349C74.4002 21.1176 74.3454 22.0907 74.3026 22.3149Z" fill="black"/>
<path d="M76.4 22.5411C78.1774 22.5411 79.6183 21.0991 79.6183 19.3204C79.6183 17.5416 78.1774 16.0996 76.4 16.0996C74.6225 16.0996 73.1816 17.5416 73.1816 19.3204C73.1816 21.0991 74.6225 22.5411 76.4 22.5411Z" fill="#A0616A"/>
<path d="M74.7547 26.5339C74.9137 26.7181 75.1053 26.8714 75.32 26.9859C75.5438 27.0785 75.7841 27.1243 76.0262 27.1205C76.6063 27.1368 77.2352 27.0304 77.6388 26.613C78.159 26.075 78.1419 25.2072 78.5496 24.5795C78.5825 24.5226 78.6273 24.4735 78.681 24.4357C78.7494 24.3984 78.8267 24.3806 78.9045 24.3843C79.4195 24.3794 79.8681 24.7137 80.273 25.0322C80.4636 25.1635 80.6271 25.3302 80.7547 25.5233C80.8347 25.6796 80.8896 25.8476 80.9171 26.0211C81.118 27.0026 81.1831 28.0062 81.2477 29.006C81.2833 29.5582 81.319 30.111 81.3164 30.6644C81.3076 32.4876 80.8842 34.2803 80.4631 36.0541C80.4088 36.2827 80.3346 36.5381 80.1269 36.6476C80.0343 36.6893 79.9349 36.7136 79.8335 36.7193C78.6275 36.861 77.4189 37.003 76.2047 37.0217C75.7308 37.029 75.2572 37.0175 74.7837 36.9872C74.7022 36.9862 74.6214 36.9721 74.5444 36.9455C74.4398 36.8952 74.3499 36.8188 74.2834 36.7237C73.6266 35.8954 73.5879 34.7503 73.5921 33.693C73.6023 31.1078 73.6946 28.5247 73.8689 25.9436C73.8833 25.7306 73.8865 25.4719 73.7331 25.3043C74.0318 25.7472 74.374 26.1592 74.7547 26.5339Z" fill="white"/>
<path d="M74.0728 22.8152C73.9641 23.0121 73.1628 23.5011 73.0081 23.6643C72.1436 24.5761 70.566 24.5419 69.7754 25.5185C69.4973 25.8621 69.3527 26.2939 69.2465 26.7231C69.0961 27.3302 69.0159 27.9923 69.2677 28.5647C69.51 29.1155 70.0201 29.4963 70.3664 29.9883C70.7466 30.5285 70.9176 31.1844 71.0814 31.8245C71.2024 32.2971 71.3243 32.7815 71.2772 33.2671C71.2237 33.8192 70.9567 34.3248 70.7991 34.8566C70.6414 35.3884 70.6142 36.0218 70.9787 36.4398C71.2464 36.7468 71.6664 36.8686 72.0679 36.937C72.5821 37.0144 73.1005 37.0595 73.6203 37.0723C74.0792 37.0926 74.5851 37.0965 74.9379 36.8021C75.2162 36.5698 75.3372 36.1928 75.3529 35.8305C75.3685 35.4681 75.2932 35.1089 75.246 34.7493C75.1971 34.3764 75.1783 34.0004 75.1625 33.6247C75.092 31.939 75.0823 30.2523 75.1336 28.5645C75.1595 28.2137 75.1423 27.861 75.0825 27.5144C74.984 27.0629 74.7402 26.6594 74.5368 26.2446C74.1301 25.4632 73.946 24.5851 74.0044 23.706C74.066 22.8027 74.4596 22.1145 74.0728 22.8152Z" fill="white"/>
<path d="M78.5908 22.8835C78.7564 23.0538 79.319 23.1099 79.5296 23.2196C79.7277 23.3112 79.9344 23.3828 80.1467 23.4334C80.915 23.6552 81.6457 23.9908 82.3146 24.4291C82.4536 24.5105 82.5765 24.6167 82.6772 24.7425C82.7832 24.9152 82.8515 25.1083 82.8777 25.3093C82.9808 25.8205 83.0845 26.3379 83.0613 26.8589C83.0367 27.4119 82.8702 27.9476 82.7051 28.4759L82.088 30.4501C81.6275 31.9237 81.1639 33.4118 81.0343 34.9504C80.9626 35.8031 80.9945 36.6614 81.1293 37.5064C81.1419 37.5475 81.1457 37.5908 81.1404 37.6335C81.135 37.6762 81.1206 37.7173 81.0982 37.754C81.0575 37.7942 81.004 37.8188 80.9471 37.8235C80.6492 37.8701 80.361 37.7182 80.0912 37.5837C79.2665 37.173 78.3863 36.8848 77.4785 36.7282C77.8333 36.2151 78.107 35.6505 78.29 35.0541C78.394 34.6754 78.4758 34.2909 78.5352 33.9027L78.8222 32.2413C78.939 31.634 79.0212 31.0206 79.0685 30.404C79.0902 30.1726 79.0767 29.9393 79.0285 29.7119C78.9624 29.4956 78.8745 29.2864 78.7663 29.0878C78.2933 28.103 78.0713 26.9792 78.2574 25.9025C78.3389 25.4314 78.4972 24.9595 78.4312 24.486C78.3677 24.0306 78.4337 23.6767 78.3169 23.2261C77.8376 21.3759 78.2794 22.5631 78.5908 22.8835Z" fill="white"/>
<path d="M69.768 27.0751C69.5523 27.523 69.1917 27.9045 69.069 28.3863C69.0213 28.6114 69.0008 28.8415 69.0081 29.0716C68.9868 29.4183 69.0211 29.7662 69.1097 30.102C69.1782 30.3145 69.2896 30.5104 69.3699 30.7187C69.4818 31.0096 69.5316 31.3208 69.5162 31.6322C69.4946 32.0636 69.3481 32.4824 69.3367 32.9142C69.3187 33.5933 69.6325 34.2316 69.9387 34.8379C70.0158 34.6468 70.1337 34.475 70.2841 34.3343C70.4344 34.1936 70.6137 34.0875 70.8094 34.0234C71.005 33.9593 71.2123 33.9388 71.4167 33.9632C71.6211 33.9876 71.8177 34.0565 71.9927 34.1649C72.0628 34.0787 72.0961 33.9683 72.0853 33.8576C72.1079 33.0698 72.1297 32.282 72.1508 31.4942C72.1839 30.2757 72.2155 29.041 71.9354 27.8547C71.809 27.3191 71.6122 26.7856 71.2515 26.3702C71.0616 26.1514 70.4168 25.5753 70.105 25.8203C69.9648 25.9305 69.9975 26.2305 69.9753 26.3824C69.9418 26.6225 69.8719 26.8561 69.768 27.0751Z" fill="white"/>
<path d="M83.1262 25.7847C83.213 26.1077 83.2501 26.442 83.2364 26.7761C83.2405 27.4571 83.2315 28.1381 83.2093 28.8189C83.2127 29.1681 83.1681 29.5162 83.0767 29.8532C83.0071 30.0724 82.8996 30.2779 82.8277 30.4963C82.6121 31.151 82.7299 31.861 82.7484 32.55C82.7614 32.773 82.7424 32.9967 82.6919 33.2143C82.5781 33.6415 82.2724 33.9866 82.059 34.3737C81.8564 34.7413 81.7341 35.1533 81.4921 35.4962C81.2501 35.8391 80.8311 36.1108 80.425 36.0055C80.1173 35.9258 79.8986 35.6532 79.7474 35.3734C79.4174 34.7583 79.3045 34.0496 79.4271 33.3623C79.5789 32.526 80.0698 31.7841 80.2468 30.9528C80.4899 29.8113 80.1204 28.6333 80.1314 27.4662C80.1264 27.2832 80.1512 27.1007 80.2048 26.9257C80.2977 26.6591 80.4971 26.4462 80.6813 26.2324C80.9115 25.9652 81.1254 25.6843 81.3218 25.3913C81.4536 25.1944 81.6328 24.6881 81.8666 24.646C82.3887 24.552 82.9967 25.3811 83.1262 25.7847Z" fill="white"/>
<path d="M67.0592 37.1633C66.7705 37.0907 66.473 37.059 66.1755 37.0693C65.8629 37.0866 65.5576 37.1702 65.2799 37.3148C65.0021 37.4593 64.7583 37.6613 64.5646 37.9074C64.3709 38.1536 64.2318 38.4381 64.1565 38.7422C64.0812 39.0463 64.0715 39.363 64.128 39.6711C64.2001 40.0049 64.3179 40.3272 64.4781 40.6287C64.7125 41.1046 64.9935 41.5795 65.4274 41.8844C65.6888 42.0521 65.9702 42.1862 66.2651 42.2835L68.55 43.1449C68.8861 43.2717 69.2223 43.3984 69.5618 43.5159C71.2672 44.1058 73.0453 44.4596 74.8465 44.5673C75.3946 44.6187 75.9472 44.5907 76.4873 44.4841C76.6179 44.4671 76.7376 44.4024 76.8234 44.3024C76.8669 44.2265 76.8926 44.1416 76.8984 44.0542L77.0391 43.0692C77.0705 42.932 77.0664 42.7891 77.0271 42.6539C76.9627 42.4884 76.8012 42.3842 76.6473 42.2958C75.1451 41.4323 73.3912 40.956 72.1268 39.771C71.8291 39.492 71.58 39.0498 71.2184 38.8603C70.8083 38.6454 70.3253 38.5227 69.9014 38.3247C68.9747 37.8918 68.0635 37.3943 67.0592 37.1633Z" fill="#2F2E41"/>
<path opacity="0.1" d="M69.3396 38.491C70.1472 38.7443 73.557 40.4989 74.1414 41.1115C74.0631 41.1397 71.4051 39.649 71.3253 39.625C70.5943 39.4241 69.8783 39.1716 69.1829 38.8695C69.0444 38.8054 68.2831 38.504 68.3175 38.3292C68.3564 38.1318 69.1962 38.4461 69.3396 38.491Z" fill="black"/>
<path d="M79.4152 45.0781C79.461 45.0815 79.5065 45.0681 79.5432 45.0404C79.5593 45.0197 79.5712 44.996 79.578 44.9707C79.5849 44.9454 79.5867 44.919 79.5832 44.893L79.5795 43.551C79.1939 43.3671 78.7625 43.3082 78.3392 43.2516L76.3637 42.9873C76.4091 42.9934 76.0549 43.8388 76.1092 43.9516C76.2049 44.1506 76.9366 44.3269 77.143 44.4208C77.8609 44.7473 78.6067 45.1062 79.4152 45.0781Z" fill="#A0616A"/>
<path d="M73.2174 43.5459C72.8444 43.6053 72.4281 43.6579 72.1866 43.9484C71.8803 44.3169 72.0107 44.8662 72.1568 45.3227C72.1657 45.3816 72.1863 45.4381 72.2175 45.4889C72.2486 45.5397 72.2896 45.5837 72.338 45.6184C72.3864 45.6531 72.4413 45.6777 72.4994 45.6907C72.5575 45.7038 72.6176 45.705 72.6762 45.6945C73.0163 45.716 73.3783 45.7329 73.6755 45.5659C73.8101 45.4769 73.9397 45.3805 74.0637 45.2772C74.2829 45.1312 74.5238 45.021 74.7774 44.9506C75.2438 44.8038 75.7238 44.7048 76.2101 44.6551C76.4018 44.6464 76.5915 44.6129 76.7746 44.5555C76.866 44.526 76.9494 44.4759 77.0184 44.4089C77.0873 44.3419 77.1399 44.2599 77.172 44.1693C77.2409 43.9255 77.0992 43.6768 76.9634 43.463C76.8069 43.1828 76.6037 42.9315 76.3626 42.7199C75.9945 42.4337 75.8125 42.6534 75.4417 42.8365C74.7399 43.1831 73.9901 43.4222 73.2174 43.5459Z" fill="#A0616A"/>
<path d="M72.2433 43.8821L69.875 43.1816C69.591 43.0826 69.2942 43.025 68.9937 43.0107C68.8433 43.0045 68.6933 43.0305 68.5537 43.087C68.4141 43.1435 68.2882 43.2291 68.1844 43.3382C68.0007 43.5539 67.9482 43.8487 67.9024 44.1283L67.8044 44.7265C67.7391 45.0281 67.7206 45.338 67.7496 45.6452C67.7654 45.7988 67.8159 45.9468 67.8975 46.078C67.979 46.2091 68.0893 46.3199 68.2201 46.402C68.5478 46.5809 68.9495 46.4935 69.3152 46.4186C70.054 46.2675 70.8055 46.1869 71.5595 46.1778C71.843 46.1744 72.1403 46.178 72.3908 46.0451C72.5362 45.9588 72.6583 45.8384 72.7466 45.6941C72.8348 45.5499 72.8866 45.3862 72.8973 45.2174C72.9439 44.7064 72.7737 44.039 72.2433 43.8821Z" fill="#2F2E41"/>
<path d="M80.3456 43.2714C80.6526 43.2176 80.9235 43.043 81.2177 42.9399C81.6318 42.7948 82.0805 42.7948 82.5192 42.7964C82.6806 42.7817 82.8427 42.8142 82.9859 42.89C83.1791 43.0187 83.2286 43.2764 83.2615 43.5064L83.4597 44.894C83.5128 45.1529 83.5183 45.4193 83.4759 45.6801C83.4178 45.9373 83.2426 46.1852 82.9876 46.2515C82.678 46.3321 82.3744 46.1341 82.082 46.0041C81.3511 45.679 80.5016 45.7621 79.7396 45.5192C79.6667 45.5045 79.5978 45.4746 79.5374 45.4314C79.477 45.3881 79.4264 45.3325 79.389 45.2683C79.363 45.1912 79.3537 45.1094 79.3617 45.0285C79.3748 44.5825 79.2808 43.9734 79.415 43.5471C79.5356 43.1637 80.0029 43.2714 80.3456 43.2714Z" fill="#2F2E41"/>
<path d="M85.3576 36.6041C85.8308 36.4853 86.3213 36.4518 86.8063 36.505C87.1936 36.5477 87.5926 36.6556 87.8754 36.9238C88.2196 37.2504 88.3302 37.7553 88.3394 38.2299C88.3545 39.175 88.0413 40.096 87.4532 40.8357C87.3096 41.0228 87.1388 41.1873 86.9465 41.3238C86.7391 41.4537 86.5181 41.5603 86.2874 41.6417L81.1704 43.6615C79.8242 44.1929 78.4733 44.7258 77.0692 45.0761C77.0308 45.0947 76.9891 45.1053 76.9465 45.1075C76.9039 45.1097 76.8614 45.1033 76.8213 45.0888C76.7812 45.0742 76.7444 45.0518 76.7132 45.0228C76.6819 44.9939 76.6567 44.9589 76.6391 44.9201C76.1908 44.2792 75.8146 43.5906 75.5176 42.867C75.5035 42.8498 75.4938 42.8295 75.4893 42.8077C75.4847 42.786 75.4855 42.7634 75.4915 42.742C75.4975 42.7206 75.5085 42.701 75.5237 42.6848C75.5389 42.6686 75.5577 42.6562 75.5787 42.6489L79.198 40.5678C79.4633 40.4292 79.7107 40.2587 79.9346 40.0598C80.091 39.9081 80.2191 39.7297 80.3128 39.5329C80.3878 39.3761 80.3948 39.006 80.4907 38.8901C80.5845 38.7766 80.9054 38.7676 81.0537 38.7229C81.2627 38.6588 81.4675 38.5814 81.6666 38.4911C82.4762 38.1286 83.1971 37.602 83.9733 37.1775C84.4086 36.9285 84.8737 36.7358 85.3576 36.6041Z" fill="#2F2E41"/>
<path opacity="0.1" d="M83.3054 38.1583C82.6836 38.6257 81.8785 39.0553 81.2622 39.535C81.0519 39.6987 77.5457 41.6715 77.4961 41.9335C78.071 42.0304 81.7335 39.4663 82.2575 39.2104C82.7815 38.9546 83.2461 38.5938 83.7064 38.2356C83.8237 38.1443 84.3208 37.87 83.9841 37.768C83.7944 37.7105 83.4455 38.0649 83.3054 38.1583Z" fill="black"/>
<path d="M79.0276 22.9287H73.5693C73.3475 22.9287 73.1348 23.0169 72.978 23.1738C72.8212 23.3307 72.7331 23.5436 72.7331 23.7655V24.0719H72.6738V24.7572H72.7331V25.2369H72.6738V25.648H72.7331V30.7043C72.7331 30.9262 72.8212 31.1391 72.978 31.296C73.1348 31.4529 73.3475 31.5411 73.5693 31.5411H79.0276C79.2493 31.5411 79.462 31.4529 79.6188 31.296C79.7756 31.1391 79.8637 30.9262 79.8637 30.7043V23.7655C79.8637 23.5436 79.7756 23.3307 79.6188 23.1738C79.462 23.0169 79.2493 22.9287 79.0276 22.9287Z" fill="#D0CDE1"/>
<path d="M79.8942 16.4649L77.1258 15.0137L73.3027 15.6074L72.5117 19.1035L74.4807 19.0277L75.0307 17.7433V19.0066L75.9392 18.9716L76.4665 16.9266L76.7961 19.1035L80.026 19.0375L79.8942 16.4649Z" fill="#2F2E41"/>
<path d="M70.4927 36.1518C70.6179 36.3649 70.7959 36.5421 71.0094 36.6663C71.1495 36.7303 71.3024 36.7615 71.4563 36.7574C71.6103 36.7532 71.7613 36.7139 71.8977 36.6425C72.1703 36.4962 72.3934 36.2724 72.5388 35.9993C72.8397 35.4676 72.902 34.8313 72.8645 34.2214C72.8269 33.6116 72.6968 33.011 72.6392 32.4027C72.5973 31.9605 72.5939 31.5157 72.5906 31.0715C72.5802 30.9781 72.5997 30.8838 72.6464 30.8023C72.7269 30.7222 72.831 30.6702 72.9432 30.654C73.5505 30.4734 73.9535 29.9038 74.2425 29.3397C74.4354 28.963 74.6032 28.5512 74.566 28.1296C74.5288 27.7079 74.226 27.2831 73.8052 27.2401C73.4582 27.2046 73.1379 27.4251 72.8877 27.6682C72.2564 28.2851 71.8507 29.0966 71.7357 29.9721C71.6808 30.4008 71.6965 30.8412 71.58 31.2574C71.3312 32.1461 70.5528 32.691 70.1648 33.4907C69.7374 34.3718 69.9733 35.3722 70.4927 36.1518Z" fill="#A0616A"/>
<path d="M81.9464 32.7564C81.8579 32.9625 81.729 33.1488 81.5674 33.3042C81.4057 33.4597 81.2146 33.5811 81.0053 33.6614C80.7451 33.766 80.4581 33.7836 80.1871 33.7116C80.0527 33.6743 79.9288 33.6065 79.8248 33.5134C79.7209 33.4204 79.6398 33.3046 79.5878 33.1751C79.5463 33.0446 79.5236 32.9089 79.5203 32.7721C79.4813 32.1728 79.4964 31.5552 79.7139 30.9955C79.7978 30.7796 79.9109 30.5749 79.9771 30.3529C80.0422 30.0966 80.0755 29.8332 80.0763 29.5687L80.1478 27.9335C80.1596 27.8148 80.1514 27.6949 80.1235 27.5789C80.0522 27.3423 79.8312 27.1885 79.6285 27.0474C79.1388 26.7067 78.655 26.309 78.4177 25.7615C78.3362 25.5966 78.307 25.4107 78.334 25.2288C78.4009 24.9041 78.7284 24.6939 79.052 24.623C79.2638 24.5767 79.4827 24.5737 79.6956 24.6143C79.9086 24.6549 80.1111 24.7382 80.291 24.8593C80.4709 24.9803 80.6244 25.1365 80.7424 25.3185C80.8604 25.5005 80.9403 25.7045 80.9774 25.9182C81.0094 26.1027 81.009 26.2912 81.0277 26.4776C81.0675 26.8729 81.1929 27.2539 81.2713 27.6434C81.4645 28.6028 81.3644 29.5944 81.5555 30.5536C81.7153 31.3556 82.3177 31.8789 81.9464 32.7564Z" fill="#A0616A"/>
<path d="M76.3703 26.6069C76.7485 26.6069 77.055 26.3001 77.055 25.9216C77.055 25.5431 76.7485 25.2363 76.3703 25.2363C75.9921 25.2363 75.6855 25.5431 75.6855 25.9216C75.6855 26.3001 75.9921 26.6069 76.3703 26.6069Z" fill="#FFDC29"/>
<path d="M2.01992 50.5507C3.1355 50.5507 4.03985 49.6457 4.03985 48.5293C4.03985 47.4128 3.1355 46.5078 2.01992 46.5078C0.90435 46.5078 0 47.4128 0 48.5293C0 49.6457 0.90435 50.5507 2.01992 50.5507Z" fill="#2F2E41"/>
<path d="M9.34165 54.5307L8.32424 53.541L6.28125 54.1761L6.47747 56.5434L10.6781 56.3482L9.38768 54.5934L9.34165 54.5307Z" fill="#FBBEBE"/>
<path d="M7.11722 54.5099C8.9208 54.5099 10.3829 53.0467 10.3829 51.2418C10.3829 49.4368 8.9208 47.9736 7.11722 47.9736C5.31365 47.9736 3.85156 49.4368 3.85156 51.2418C3.85156 53.0467 5.31365 54.5099 7.11722 54.5099Z" fill="#FBBEBE"/>
<path d="M27.3904 58.7256C27.3904 58.7256 31.4023 65.6254 32.3571 66.6612C32.8111 67.171 33.2949 67.6535 33.8058 68.1062C33.8058 68.1062 33.3569 69.5962 32.642 69.543C32.2345 69.5184 31.8349 69.4199 31.4627 69.2522C31.4627 69.2522 31.1436 68.4244 30.5871 68.0614C30.0305 67.6984 25.4834 63.2216 25.5897 61.7908C25.696 60.3599 27.3904 58.7256 27.3904 58.7256Z" fill="#2F2E41"/>
<path d="M13.1035 68.5712C13.1035 68.5712 17.3811 71.8939 23.1946 68.7717L23.6956 68.4028C23.6956 68.4028 22.8501 70.3062 22.7716 70.8222C22.6807 71.4206 20.4795 74.9257 20.1203 75.0936C19.7611 75.2615 19.6819 75.4165 19.6819 75.4165L21.2063 77.0956L21.7699 76.6805C21.7699 76.6805 23.9676 73.5644 24.6103 72.9944C25.2531 72.4244 28.3156 66.546 28.3156 66.546C28.3156 66.546 29.4865 64.3311 26.5643 64.1645C23.6422 63.9979 22.2975 64.795 22.2975 64.795L17.1114 65.6194L13.1035 68.5712Z" fill="#2F2E41"/>
<path d="M33.856 67.7793L36.0197 69.2774C36.0197 69.2774 38.78 70.1429 37.0796 70.7189C35.3793 71.2948 30.8986 71.5032 30.797 70.7085C30.6953 69.9139 30.9737 68.6631 31.1972 68.7315C31.4208 68.7999 32.9723 69.2031 33.856 67.7793Z" fill="#2F2E41"/>
<path d="M21.9598 76.1656L22.3603 78.3664C22.3603 78.3664 23.499 80.5458 22.1318 79.8696C20.7646 79.1934 17.9478 76.6247 18.3637 76.0862C18.7797 75.5477 19.6977 74.9637 19.791 75.1392C19.8842 75.3147 20.5742 76.4896 21.9598 76.1656Z" fill="#2F2E41"/>
<path d="M17.8353 66.3428C17.8353 66.3428 14.9275 69.7403 13.1621 68.915C11.3968 68.0896 4.17424 58.5305 4.99893 56.7638C5.82361 54.9971 6.10013 55.3731 6.10013 55.3731L9.82934 55.7182L8.75635 53.9965C8.75635 53.9965 9.25734 53.6276 9.73474 54.1455C10.2121 54.6634 12.1288 55.957 12.7965 57.7839C13.4642 59.6109 15.4245 59.5198 15.4245 59.5198L17.8353 66.3428Z" fill="white"/>
<path d="M29.5774 59.3363L24.5369 64.691L20.0215 56.7128L24.3141 51.5225L29.5774 59.3363Z" fill="#3F3D56"/>
<path d="M29.1975 59.2782L24.6449 63.9836L20.5195 56.7327L24.3029 51.9658L29.1975 59.2782Z" fill="white"/>
<path d="M24.29 64.4863L24.5369 64.6909L24.3786 65.0007L17.3303 67.1L17.2637 66.8584L17.5843 66.5265L24.29 64.4863Z" fill="#B3B3B3"/>
<path d="M24.5995 64.645L17.3008 66.9287L12.8516 58.5153L20.0215 56.7129L24.5995 64.645Z" fill="#D0CDE1"/>
<path d="M24.0502 63.5036L23.7371 63.7342L20.2617 57.6952L20.6209 57.5273L24.0502 63.5036Z" fill="#3F3D56"/>
<path d="M23.3327 63.8394L20.2452 64.7607L16.7402 58.5504L19.7947 57.8467L23.3327 63.8394Z" fill="#3F3D56"/>
<path d="M14.6345 59.2311L15.2737 59.0501C15.2737 59.0501 18.8386 58.6467 18.8907 59.7678C18.9427 60.8888 14.7952 60.3687 14.7952 60.3687L14.2422 59.6166L14.6345 59.2311Z" fill="#FBBEBE"/>
<path d="M17.7613 64.2713L18.6511 63.9058C18.6511 63.9058 21.3368 62.7007 20.5664 61.9155C19.7959 61.1304 17.4197 62.4939 17.4197 62.4939L16.9648 62.9256L17.7613 64.2713Z" fill="#FBBEBE"/>
<path d="M16.9675 62.5366C16.9675 62.5366 18.4163 63.9816 18.0866 64.321C17.7569 64.6604 12.3512 69.1246 11.0112 67.6962C9.6712 66.2678 3.14241 59.0961 5.68286 58.4811C8.22332 57.8661 8.89455 59.304 8.89455 59.304L12.2483 65.0461L16.9675 62.5366Z" fill="white"/>
<path d="M12.6291 58.1475L15.0089 58.955L14.97 60.6744L12.4531 60.4026L12.6291 58.1475Z" fill="white"/>
<path opacity="0.2" d="M14.7747 63.4268L12.2107 64.9288L9.28125 60.4199L12.109 64.1341L14.7747 63.4268Z" fill="black"/>
<path d="M5.68262 54.1856C7.82973 54.1856 9.57031 52.4437 9.57031 50.2949C9.57031 48.1462 7.82973 46.4043 5.68262 46.4043C3.5355 46.4043 1.79492 48.1462 1.79492 50.2949C1.79492 52.4437 3.5355 54.1856 5.68262 54.1856Z" fill="#2F2E41"/>
<path d="M26.689 59.6754L23.9668 55.6903L25.1207 54.2607L27.9493 58.3608L26.689 59.6754Z" fill="#FFDC29"/>
<path d="M26.613 61.2785L22.4688 55.2491L22.6731 55.002L26.798 61.0455L26.613 61.2785Z" fill="#E6E6E6"/>
<path d="M26.0798 61.8644L21.9355 55.835L22.1399 55.5879L26.2648 61.6316L26.0798 61.8644Z" fill="#E6E6E6"/>
<path d="M25.6247 62.296L21.4805 56.2667L21.6849 56.0195L25.8097 62.0632L25.6247 62.296Z" fill="#E6E6E6"/>
<path d="M7.40625 47.6973H8.6089C9.21783 47.6973 9.80182 47.9393 10.2324 48.3702C10.663 48.8011 10.9049 49.3856 10.9049 49.995H7.40625V47.6973Z" fill="#2F2E41"/>
<path d="M23.9723 46.235L23.7542 46.2188C23.7458 46.3322 23.7397 46.4463 23.7325 46.5602L22.7539 46.5274L23.7804 48.4525L24.9333 46.6004L23.9511 46.5675C23.9582 46.4566 23.964 46.3455 23.9723 46.235Z" fill="#3F3D56"/>
<path d="M29.7109 30.543L29.8848 30.6758C30.1455 30.3341 30.4178 29.9929 30.6942 29.6618L30.5263 29.5215C30.2479 29.8551 29.9736 30.1987 29.7109 30.543Z" fill="#3F3D56"/>
<path d="M31.3867 28.5363L31.5482 28.6839C31.8382 28.366 32.1394 28.0502 32.4433 27.7453L32.2884 27.5908C31.9823 27.8979 31.6789 28.2161 31.3867 28.5363Z" fill="#3F3D56"/>
<path d="M33.2305 26.6864L33.3783 26.8477C33.6956 26.5561 34.0232 26.2682 34.3519 25.9918L34.2113 25.8242C33.8801 26.1027 33.5501 26.3928 33.2305 26.6864Z" fill="#3F3D56"/>
<path d="M28.2188 32.6896L28.4036 32.8065C28.6334 32.4427 28.8747 32.0787 29.1208 31.7246L28.9414 31.5996C28.6934 31.9563 28.4503 32.323 28.2188 32.6896Z" fill="#3F3D56"/>
<path d="M35.2285 25.0058L35.3617 25.1793C35.7033 24.9168 36.0548 24.6589 36.4063 24.4127L36.281 24.2334C35.9268 24.4815 35.5727 24.7413 35.2285 25.0058Z" fill="#3F3D56"/>
<path d="M26.9219 34.9608L27.1163 35.0608C27.3133 34.6775 27.5216 34.2933 27.7354 33.9192L27.5456 33.8105C27.3302 34.1875 27.1203 34.5745 26.9219 34.9608Z" fill="#3F3D56"/>
<path d="M24.8118 41.12L24.6001 41.0654C24.492 41.4853 24.392 41.9134 24.3027 42.3381L24.5167 42.3832C24.6053 41.9617 24.7046 41.5367 24.8118 41.12Z" fill="#3F3D56"/>
<path d="M37.3672 23.5093L37.4845 23.6939C37.847 23.4631 38.2196 23.2373 38.5921 23.0227L38.483 22.833C38.1077 23.0493 37.7323 23.2768 37.3672 23.5093Z" fill="#3F3D56"/>
<path d="M24.278 43.6585L24.0622 43.623C23.992 44.0502 23.9303 44.4855 23.8789 44.9169L24.0961 44.9427C24.1471 44.5147 24.2083 44.0826 24.278 43.6585Z" fill="#3F3D56"/>
<path d="M25.8301 37.3394L26.0326 37.4218C26.1948 37.0225 26.3682 36.6211 26.5481 36.2291L26.3494 36.1377C26.1681 36.5328 25.9934 36.9371 25.8301 37.3394Z" fill="#3F3D56"/>
<path d="M24.9551 39.8075L25.1642 39.8714C25.2903 39.4585 25.4274 39.0431 25.5716 38.6367L25.3655 38.5635C25.2202 38.9729 25.0821 39.3915 24.9551 39.8075Z" fill="#3F3D56"/>
<path d="M52.1579 19.1472C52.5865 19.1323 53.023 19.1263 53.4548 19.1304L53.4567 18.9114C53.0219 18.9073 52.5821 18.9133 52.1504 18.9282L52.1579 19.1472Z" fill="#3F3D56"/>
<path d="M39.627 22.2064L39.7275 22.4006C40.1094 22.2026 40.5003 22.0108 40.8895 21.8304L40.7975 21.6318C40.4055 21.8136 40.0116 22.0069 39.627 22.2064Z" fill="#3F3D56"/>
<path d="M57.332 19.42C57.7586 19.4805 58.1891 19.5513 58.6116 19.6305L58.6517 19.4152C58.2261 19.3354 57.7924 19.264 57.3626 19.2031L57.332 19.42Z" fill="#3F3D56"/>
<path d="M59.8809 19.8978C60.2996 19.9958 60.7222 20.1046 61.1367 20.2214L61.1958 20.0105C60.7783 19.8929 60.3526 19.7833 59.9306 19.6846L59.8809 19.8978Z" fill="#3F3D56"/>
<path d="M62.377 20.5994C62.7852 20.7342 63.1964 20.8802 63.5989 21.0333L63.6767 20.8288C63.271 20.6745 62.8569 20.5274 62.4455 20.3916L62.377 20.5994Z" fill="#3F3D56"/>
<path d="M54.752 19.1708C55.1826 19.1935 55.6176 19.226 56.0453 19.2674L56.0664 19.0494C55.6356 19.0076 55.1972 18.9749 54.7635 18.9521L54.752 19.1708Z" fill="#3F3D56"/>
<path d="M49.5469 19.133L49.5736 19.3504C49.9997 19.2979 50.4336 19.2541 50.8631 19.2203L50.846 19.002C50.4132 19.036 49.9761 19.0801 49.5469 19.133Z" fill="#3F3D56"/>
<path d="M44.4453 20.2281L44.51 20.4373C44.9209 20.3099 45.3403 20.19 45.7564 20.081L45.7011 19.8691C45.2818 19.9789 44.8593 20.0997 44.4453 20.2281Z" fill="#3F3D56"/>
<path d="M41.9922 21.1106L42.0752 21.3131C42.4728 21.1498 42.8789 20.9935 43.2822 20.8485L43.2083 20.6426C42.8019 20.7886 42.3927 20.9461 41.9922 21.1106Z" fill="#3F3D56"/>
<path d="M46.9727 19.567L47.0185 19.7812C47.4385 19.691 47.8669 19.6089 48.2916 19.5373L48.2553 19.3213C47.8274 19.3935 47.3958 19.4761 46.9727 19.567Z" fill="#3F3D56"/>
<path d="M66.8604 22.3863L65.6385 20.5791L65.2088 21.4642C65.1048 21.4177 65.0014 21.3702 64.8975 21.3252L64.8106 21.5261C64.912 21.57 65.0123 21.6161 65.1132 21.6611L64.6855 22.542L66.8604 22.3863Z" fill="#3F3D56"/>
</g>
<defs>
<clipPath id="clip0">
<rect width="99" height="80" fill="white"/>
</clipPath>
</defs>
</svg>
